<?xml version="1.0" encoding="UTF-8"?>
<!DOCTYPE svg PUBLIC "-//W3C//DTD SVG 1.1//EN" "http://www.w3.org/Graphics/SVG/1.1/DTD/svg11.dtd" [
  <!ENTITY fill_color "#FFFFFF">
  <!ENTITY stroke_color "#000000">
]>

<svg class="img-fluid" id="outputsvg" xmlns="http://www.w3.org/2000/svg" style="transform: none; transform-origin: 50% 50%; cursor: move; max-height: none;" width="500" height="500" viewBox="0 0 5000 5000"><g id="l1vK9Jhh9KDCcLpd0FIIW8j" fill="&stroke_color;" style="transform: none;"><g style="transform: none;"><path id="pfBl7CrrG" d="M205 3437 c-62 -40 -142 -104 -148 -120 -6 -17 41 -371 78 -582 8 -49 24 -157 36 -240 11 -82 29 -213 39 -290 11 -77 26 -190 34 -250 17 -127 22 -142 44 -149 10 -3 94 -13 187 -21 94 -9 195 -20 225 -24 30 -5 63 -5 72 -2 15 5 140 139 275 294 18 20 37 37 43 37 5 0 11 -24 11 -52 1 -29 3 -87 4 -128 2 -41 4 -92 4 -112 1 -52 27 -74 92 -82 30 -4 113 -16 184 -26 397 -58 396 -57 413 -37 12 14 21 288 38 1155 6 300 5 344 -9 360 -13 15 -45 113 -49 150 -1 6 -6 12 -12 12 -37 1 -369 40 -373 44 -3 3 -13 -9 -23 -27 -56 -105 -91 -147 -243 -296 -91 -91 -169 -163 -172 -160 -2 3 -7 79 -10 170 -6 192 -14 341 -18 345 -2 2 -278 28 -477 44 -74 6 -148 13 -165 15 -21 3 -45 -6 -80 -28z m230 -162 c362 -34 335 -27 336 -84 1 -25 2 -57 4 -71 1 -14 5 -86 8 -160 4 -74 10 -168 13 -209 l7 -73 252 252 252 252 179 -17 c98 -9 212 -19 251 -22 l73 -6 -5 -126 c-4 -122 -9 -324 -20 -841 -5 -245 -15 -493 -18 -497 -2 -2 -459 64 -574 83 -41 6 -43 8 -44 43 -1 20 -4 119 -8 220 l-6 184 -179 -199 c-102 -113 -188 -201 -200 -203 -31 -5 -440 31 -450 40 -4 4 -17 65 -27 136 -43 292 -121 835 -134 928 -15 110 -19 137 -41 272 -21 136 -21 134 24 128 20 -3 159 -17 307 -30z"></path><path id="pG9psBmov" d="M2439 3335 c-1 -5 -1 -13 0 -17 0 -5 -41 -8 -92 -8 -52 0 -161 -3 -244 -7 l-150 -6 -13 -86 c-6 -47 -15 -93 -18 -101 -10 -25 -29 -1084 -20 -1102 4 -9 23 -20 41 -23 75 -12 484 -32 504 -24 12 5 25 19 27 31 3 13 16 262 29 553 24 513 24 531 7 570 -10 23 -30 83 -44 135 -13 52 -26 91 -27 85z m47 -347 c-3 -57 -16 -303 -27 -548 -12 -245 -23 -447 -25 -449 -3 -3 -496 27 -500 32 -1 1 3 242 9 535 l11 532 269 0 269 0 -6 -102z"></path><path id="p10is5eH1c" d="M4453 3313 c-156 -2 -283 -5 -283 -7 0 -40 -131 -729 -140 -739 -7 -8 -98 55 -235 163 -68 53 -177 110 -211 110 -16 0 -48 -24 -97 -72 -112 -111 -187 -178 -198 -178 -7 0 -8 88 -4 273 l7 272 -47 88 -47 89 -232 -7 c-127 -3 -264 -8 -303 -11 l-73 -6 -2 -41 c-1 -23 -2 -103 -3 -177 -1 -74 -5 -432 -9 -796 -8 -618 -7 -661 9 -678 16 -15 45 -17 339 -14 l321 3 65 65 c135 134 398 380 406 380 4 0 85 -76 179 -169 l170 -168 255 -6 c207 -5 259 -3 276 8 17 11 27 44 53 167 18 84 39 177 47 206 33 124 44 165 78 307 19 83 47 205 61 272 14 67 34 149 44 181 11 32 31 118 47 190 l27 132 -34 33 c-19 18 -52 57 -74 85 -35 47 -43 52 -75 50 -19 -2 -162 -4 -317 -5z m-1204 -300 c0 -71 -4 -245 -8 -388 -4 -143 -7 -261 -6 -263 1 -1 42 35 91 80 199 182 347 308 363 308 9 0 112 -72 228 -159 l213 -159 9 37 c6 20 42 167 82 326 39 160 75 294 80 299 7 8 178 22 498 42 l114 7 -7 -39 c-4 -21 -27 -122 -52 -224 -24 -102 -66 -279 -93 -395 -27 -116 -77 -325 -110 -465 -34 -140 -63 -265 -66 -278 -5 -22 -7 -22 -163 -21 -86 1 -198 4 -249 8 l-92 6 -182 179 -181 179 -61 -60 c-34 -32 -146 -139 -248 -236 l-186 -177 -306 0 c-168 0 -307 3 -309 8 -2 4 -1 178 3 387 4 209 8 539 10 734 2 232 7 354 14 356 5 2 141 10 300 18 160 8 296 15 303 16 9 1 12 -30 11 -126z"></path><path id="p14jzZ2BMu" d="M1932 1849 c-40 -64 -52 -93 -57 -140 -7 -63 3 -89 34 -89 9 0 21 -4 27 -9 19 -19 204 -91 232 -91 30 0 108 29 228 85 47 22 73 41 77 54 9 37 -19 104 -79 189 l-59 82 -176 0 -176 0 -51 -81z m453 -79 c26 -44 45 -87 43 -97 -2 -12 -42 -35 -123 -70 -66 -29 -127 -52 -135 -52 -8 0 -69 23 -135 52 -91 40 -121 57 -123 72 -1 11 18 55 43 98 l46 77 168 0 169 0 47 -80z"></path></g></g></svg>