<?xml version="1.0" encoding="UTF-8"?>
<!DOCTYPE svg PUBLIC "-//W3C//DTD SVG 1.1//EN" "http://www.w3.org/Graphics/SVG/1.1/DTD/svg11.dtd" [
  <!ENTITY fill_color "#FFFFFF">
  <!ENTITY stroke_color "#000000">
]>
<svg>
<g fill="None" fill-opacity="0.0" stroke="&stroke_color;" stroke-opacity="0.00" stroke-width="0.3"><path d="
M 0.00 1600.00 
L 1600.00 1600.00
L 1600.00 0.00
L 0.00 0.00
L 0.00 1600.00
M 700.00 487.00 
C 712.13 488.73 724.18 496.12 736.07 499.93 C 747.97 503.73 758.51 511.30 770.23 515.77 C 781.95 520.24 795.41 529.04 791.01 543.01 C 786.61 556.97 782.47 564.16 775.70 576.70 C 768.92 589.23 762.15 592.72 755.23 606.23 C 748.31 619.74 731.22 617.43 716.00 617.00 C 700.78 616.57 682.31 616.93 667.00 617.00 C 651.69 617.07 634.27 620.45 627.70 606.31 C 621.12 592.16 615.21 588.58 609.03 574.97 C 602.84 561.36 600.06 552.01 599.07 535.93 C 598.08 519.85 613.56 517.56 625.22 512.22 C 636.89 506.89 647.75 500.94 660.08 497.08 C 672.40 493.21 686.12 485.02 700.00 487.00
M 1334.00 1058.00 
C 1322.93 978.08 1306.39 899.57 1290.00 821.00
C 1281.32 823.22 1273.70 829.27 1266.30 834.30 C 1258.91 839.33 1252.10 844.61 1244.92 849.92 C 1237.74 855.22 1230.78 860.12 1223.77 865.77 C 1216.76 871.42 1210.41 876.76 1202.77 881.77 C 1195.13 886.78 1188.07 891.13 1179.77 895.77 C 1171.47 900.41 1163.31 903.53 1153.98 906.98 C 1144.64 910.42 1135.20 903.38 1128.75 897.25 C 1122.30 891.12 1115.59 885.55 1109.75 879.25 C 1103.91 872.95 1096.27 865.53 1090.30 860.70 C 1084.33 855.86 1076.42 846.12 1071.25 842.75 C 1066.08 839.38 1053.63 823.17 1051.03 832.03 C 1048.43 840.88 1050.68 857.38 1050.00 868.00 C 1049.32 878.62 1051.51 892.62 1051.00 904.00 C 1050.49 915.38 1050.87 929.60 1051.00 941.00 C 1051.13 952.40 1052.01 965.90 1052.00 977.00 C 1051.99 988.10 1055.35 1000.62 1049.70 1009.70 C 1044.04 1018.77 1041.96 1025.35 1037.08 1034.08 C 1032.20 1042.80 1028.05 1050.07 1024.00 1059.00
C 958.90 1057.07 893.24 1057.37 829.00 1052.00
C 828.33 1036.25 827.51 1021.11 828.00 1005.00 C 828.49 988.89 827.26 973.03 827.00 957.00 C 826.74 940.97 827.34 924.03 827.00 908.00 C 826.66 891.97 826.08 876.07 826.00 860.00 C 825.92 843.93 826.76 827.90 826.00 812.00 C 825.24 796.10 825.08 780.11 825.00 764.00 C 824.92 747.89 823.51 732.32 824.00 716.00 C 824.49 699.68 823.81 683.31 824.00 667.00 C 824.19 650.69 824.34 635.89 823.22 619.78 C 822.11 603.67 823.74 587.54 823.00 571.00 C 822.26 554.46 824.10 539.91 824.00 523.00 C 823.90 506.09 841.28 505.83 856.00 506.00 C 870.72 506.17 889.74 505.98 905.00 506.00 C 920.26 506.02 937.16 505.70 952.07 506.93 C 966.99 508.15 986.57 506.14 1001.00 507.00 C 1015.43 507.86 1034.51 503.35 1044.25 512.75 C 1053.98 522.15 1059.77 528.79 1068.75 537.25 C 1077.74 545.71 1083.94 553.53 1092.75 561.25 C 1101.56 568.96 1109.39 577.29 1117.75 585.25 C 1126.12 593.21 1135.52 600.25 1143.25 608.75 C 1150.97 617.25 1160.97 624.71 1168.75 632.25 C 1176.53 639.79 1186.85 653.42 1195.70 644.70 C 1204.55 635.97 1212.25 629.34 1220.75 620.75 C 1229.26 612.16 1236.79 604.87 1245.25 596.25 C 1253.70 587.62 1261.14 580.35 1270.25 572.25 C 1279.36 564.15 1285.12 556.46 1294.75 547.75 C 1304.38 539.05 1322.12 541.85 1336.07 541.07 C 1350.02 540.30 1369.74 540.40 1384.00 540.00 C 1398.26 539.60 1418.33 537.98 1432.00 539.00 C 1445.67 540.02 1465.77 535.10 1473.92 546.08 C 1482.07 557.06 1481.13 570.38 1484.98 583.02 C 1488.82 595.67 1489.83 610.40 1493.78 623.22 C 1497.72 636.05 1498.58 650.52 1502.78 663.22 C 1506.98 675.92 1509.66 689.08 1512.98 702.02 C 1516.29 714.97 1520.03 726.96 1522.92 740.08 C 1525.82 753.19 1529.00 766.86 1531.93 780.07 C 1534.86 793.28 1538.18 806.75 1540.99 820.01 C 1543.81 833.27 1547.24 846.85 1549.93 860.07 C 1552.62 873.30 1555.97 886.78 1559.33 899.67 C 1562.69 912.57 1567.24 924.34 1569.78 937.22 C 1572.31 950.10 1576.47 964.74 1578.92 977.08 C 1581.37 989.43 1587.77 1005.84 1577.75 1014.75 C 1567.74 1023.66 1562.62 1030.83 1554.25 1040.25 C 1545.87 1049.67 1542.26 1062.38 1527.00 1061.00 C 1511.74 1059.62 1493.61 1062.17 1478.00 1061.00 C 1462.39 1059.83 1446.12 1059.52 1430.00 1060.00 C 1413.88 1060.48 1398.11 1058.74 1382.00 1059.00 C 1365.89 1059.26 1350.05 1058.03 1334.00 1058.00
M 305.00 925.00 
C 301.27 979.73 301.07 1035.35 297.00 1090.00
C 284.24 1090.26 272.74 1093.39 259.99 1093.99 C 247.25 1094.59 233.78 1096.48 221.00 1097.00 C 208.22 1097.52 196.67 1100.48 183.93 1100.93 C 171.18 1101.37 157.41 1102.71 145.00 1104.00 C 132.59 1105.29 118.90 1105.10 107.00 1107.00 C 95.10 1108.90 82.17 1109.96 72.31 1103.70 C 62.44 1097.43 56.63 1094.05 47.75 1087.25 C 38.88 1080.44 33.17 1076.33 24.75 1068.25 C 16.33 1060.17 18.29 1045.55 20.00 1034.00 C 21.71 1022.45 23.65 1009.17 25.31 997.31 C 26.96 985.45 28.30 972.97 29.98 960.98 C 31.65 948.98 33.35 936.27 35.33 924.33 C 37.31 912.39 39.05 900.96 41.00 889.00 C 42.95 877.03 45.40 865.02 46.93 852.93 C 48.46 840.83 50.45 829.13 52.00 817.00 C 53.55 804.87 55.90 792.86 57.78 780.78 C 59.65 768.70 59.94 756.04 62.00 744.00 C 64.05 731.96 65.44 719.43 67.33 707.33 C 69.22 695.23 70.13 683.11 72.00 671.00 C 73.87 658.89 75.71 646.22 77.00 634.00 C 78.29 621.77 81.34 610.34 82.00 598.00 C 82.66 585.66 89.37 576.16 102.22 576.22 C 115.07 576.28 127.50 573.42 140.00 573.00 C 152.50 572.58 165.49 569.03 177.67 568.67 C 189.85 568.31 203.54 565.34 215.00 565.00 C 226.46 564.66 241.57 558.61 250.75 565.25 C 259.93 571.89 263.42 579.28 270.75 586.25 C 278.09 593.21 284.84 600.84 291.25 607.75 C 297.66 614.67 304.45 623.22 310.75 629.25 C 317.05 635.27 324.48 647.21 330.25 651.75 C 336.01 656.30 345.77 675.05 350.77 665.77 C 355.77 656.49 352.56 638.36 354.00 627.00 C 355.44 615.64 353.75 597.46 355.00 586.00 C 356.25 574.54 353.88 561.33 365.08 555.08 C 376.29 548.84 386.93 549.23 399.07 547.07 C 411.21 544.91 423.67 544.71 435.67 542.67 C 447.67 540.63 459.98 538.24 472.00 537.00 C 484.03 535.77 496.28 533.21 508.00 532.00 C 519.72 530.79 533.42 527.18 544.67 526.67 C 555.92 526.16 572.72 520.16 576.00 533.00 C 579.28 545.84 577.99 558.73 579.00 572.00 C 580.01 585.27 580.23 598.43 580.00 612.00 C 579.77 625.57 581.96 638.48 582.00 652.00 C 582.04 665.52 582.36 678.58 583.00 692.00 C 583.64 705.42 583.40 719.51 584.00 733.00 C 584.60 746.49 582.72 760.69 584.00 774.00 C 585.28 787.31 584.15 801.63 585.00 815.00 C 585.85 828.37 585.78 841.23 586.33 854.67 C 586.88 868.11 587.42 882.34 587.00 896.00 C 586.58 909.66 587.60 922.62 588.00 936.00 C 588.40 949.38 587.58 964.85 588.00 978.00 C 588.42 991.15 588.77 1003.77 583.75 1014.75 C 578.72 1025.72 574.31 1033.27 572.22 1045.22 C 570.14 1057.18 567.15 1068.72 552.78 1066.78 C 538.41 1064.84 527.64 1071.25 514.98 1070.98 C 502.31 1070.71 489.21 1075.27 477.98 1074.98 C 466.74 1074.68 451.56 1082.89 443.25 1077.75 C 434.94 1072.61 433.98 1059.41 427.75 1052.25 C 421.51 1045.10 417.35 1034.59 410.25 1027.75 C 403.15 1020.91 397.67 1013.19 390.75 1006.25 C 383.83 999.30 376.73 992.13 369.75 985.25 C 362.77 978.37 356.34 971.52 349.25 964.75 C 342.15 957.98 335.57 950.32 328.25 943.75 C 320.93 937.19 313.07 930.12 305.00 925.00
M 782.00 1065.00 
C 774.87 1055.88 759.77 1059.49 747.00 1059.00 C 734.23 1058.51 719.42 1058.51 706.33 1057.67 C 693.24 1056.83 679.22 1057.00 665.98 1056.02 C 652.73 1055.04 638.20 1056.42 625.00 1055.00
C 623.00 1035.39 619.04 1018.52 616.07 998.93 C 613.11 979.33 613.07 958.49 612.01 937.99 C 610.95 917.49 612.35 894.68 611.00 874.00 C 609.65 853.32 610.99 830.75 610.00 810.00 C 609.01 789.25 608.59 766.80 609.00 746.00 C 609.41 725.20 608.55 701.81 608.00 682.00 C 607.45 662.20 603.87 636.89 626.00 635.00 C 648.13 633.11 664.88 632.10 686.00 630.00 C 707.12 627.90 729.28 629.84 750.00 628.00 C 770.72 626.16 793.18 624.59 792.33 648.67 C 791.48 672.75 796.50 687.64 796.00 710.00 C 795.50 732.36 798.39 750.64 799.00 772.00 C 799.61 793.36 799.95 813.33 801.99 834.01 C 804.03 854.68 801.84 876.60 804.00 897.00 C 806.16 917.40 805.14 938.84 806.99 959.01 C 808.84 979.18 803.55 996.44 796.69 1013.69 C 789.83 1030.95 788.12 1047.64 782.00 1065.00 Z"/>
</g>
<g fill="None" fill-opacity="0.0" stroke="&stroke_color;" stroke-opacity="1.00" stroke-width="0.3"><path d="
M 700.00 487.00 
C 686.12 485.02 672.40 493.21 660.08 497.08 C 647.75 500.94 636.89 506.89 625.22 512.22 C 613.56 517.56 598.08 519.85 599.07 535.93 C 600.06 552.01 602.84 561.36 609.03 574.97 C 615.21 588.58 621.12 592.16 627.70 606.31 C 634.27 620.45 651.69 617.07 667.00 617.00 C 682.31 616.93 700.78 616.57 716.00 617.00 C 731.22 617.43 748.31 619.74 755.23 606.23 C 762.15 592.72 768.92 589.23 775.70 576.70 C 782.47 564.16 786.61 556.97 791.01 543.01 C 795.41 529.04 781.95 520.24 770.23 515.77 C 758.51 511.30 747.97 503.73 736.07 499.93 C 724.18 496.12 712.13 488.73 700.00 487.00
M 696.00 496.00 
C 705.92 496.77 716.76 505.65 726.69 508.31 C 736.63 510.96 747.72 518.04 757.08 521.92 C 766.43 525.81 780.49 532.06 775.07 543.07 C 769.66 554.09 766.52 561.82 760.08 572.08 C 753.64 582.33 751.27 593.31 737.00 592.00 C 722.73 590.69 707.25 592.14 693.00 592.00 C 678.75 591.86 664.04 590.97 650.00 592.00 C 635.96 593.03 634.14 580.30 627.70 570.30 C 621.25 560.31 617.35 553.14 613.22 541.78 C 609.10 530.42 625.13 524.79 634.07 521.07 C 643.02 517.35 653.90 510.07 663.69 507.69 C 673.49 505.32 685.54 495.19 696.00 496.00 Z"/>
</g>
<g fill="None" fill-opacity="0.0" stroke="&fill_color;" stroke-opacity="1.00" stroke-width="0.3"><path d="
M 696.00 496.00 
C 685.54 495.19 673.49 505.32 663.69 507.69 C 653.90 510.07 643.02 517.35 634.07 521.07 C 625.13 524.79 609.10 530.42 613.22 541.78 C 617.35 553.14 621.25 560.31 627.70 570.30 C 634.14 580.30 635.96 593.03 650.00 592.00 C 664.04 590.97 678.75 591.86 693.00 592.00 C 707.25 592.14 722.73 590.69 737.00 592.00 C 751.27 593.31 753.64 582.33 760.08 572.08 C 766.52 561.82 769.66 554.09 775.07 543.07 C 780.49 532.06 766.43 525.81 757.08 521.92 C 747.72 518.04 736.63 510.96 726.69 508.31 C 716.76 505.65 705.92 496.77 696.00 496.00 Z"/>
</g>
<g fill="None" fill-opacity="0.0" stroke="&stroke_color;" stroke-opacity="1.00" stroke-width="0.3"><path d="
M 1334.00 1058.00 
C 1350.05 1058.03 1365.89 1059.26 1382.00 1059.00 C 1398.11 1058.74 1413.88 1060.48 1430.00 1060.00 C 1446.12 1059.52 1462.39 1059.83 1478.00 1061.00 C 1493.61 1062.17 1511.74 1059.62 1527.00 1061.00 C 1542.26 1062.38 1545.87 1049.67 1554.25 1040.25 C 1562.62 1030.83 1567.74 1023.66 1577.75 1014.75 C 1587.77 1005.84 1581.37 989.43 1578.92 977.08 C 1576.47 964.74 1572.31 950.10 1569.78 937.22 C 1567.24 924.34 1562.69 912.57 1559.33 899.67 C 1555.97 886.78 1552.62 873.30 1549.93 860.07 C 1547.24 846.85 1543.81 833.27 1540.99 820.01 C 1538.18 806.75 1534.86 793.28 1531.93 780.07 C 1529.00 766.86 1525.82 753.19 1522.92 740.08 C 1520.03 726.96 1516.29 714.97 1512.98 702.02 C 1509.66 689.08 1506.98 675.92 1502.78 663.22 C 1498.58 650.52 1497.72 636.05 1493.78 623.22 C 1489.83 610.40 1488.82 595.67 1484.98 583.02 C 1481.13 570.38 1482.07 557.06 1473.92 546.08 C 1465.77 535.10 1445.67 540.02 1432.00 539.00 C 1418.33 537.98 1398.26 539.60 1384.00 540.00 C 1369.74 540.40 1350.02 540.30 1336.07 541.07 C 1322.12 541.85 1304.38 539.05 1294.75 547.75 C 1285.12 556.46 1279.36 564.15 1270.25 572.25 C 1261.14 580.35 1253.70 587.62 1245.25 596.25 C 1236.79 604.87 1229.26 612.16 1220.75 620.75 C 1212.25 629.34 1204.55 635.97 1195.70 644.70 C 1186.85 653.42 1176.53 639.79 1168.75 632.25 C 1160.97 624.71 1150.97 617.25 1143.25 608.75 C 1135.52 600.25 1126.12 593.21 1117.75 585.25 C 1109.39 577.29 1101.56 568.96 1092.75 561.25 C 1083.94 553.53 1077.74 545.71 1068.75 537.25 C 1059.77 528.79 1053.98 522.15 1044.25 512.75 C 1034.51 503.35 1015.43 507.86 1001.00 507.00 C 986.57 506.14 966.99 508.15 952.07 506.93 C 937.16 505.70 920.26 506.02 905.00 506.00 C 889.74 505.98 870.72 506.17 856.00 506.00 C 841.28 505.83 823.90 506.09 824.00 523.00 C 824.10 539.91 822.26 554.46 823.00 571.00 C 823.74 587.54 822.11 603.67 823.22 619.78 C 824.34 635.89 824.19 650.69 824.00 667.00 C 823.81 683.31 824.49 699.68 824.00 716.00 C 823.51 732.32 824.92 747.89 825.00 764.00 C 825.08 780.11 825.24 796.10 826.00 812.00 C 826.76 827.90 825.92 843.93 826.00 860.00 C 826.08 876.07 826.66 891.97 827.00 908.00 C 827.34 924.03 826.74 940.97 827.00 957.00 C 827.26 973.03 828.49 988.89 828.00 1005.00 C 827.51 1021.11 828.33 1036.25 829.00 1052.00
C 893.24 1057.37 958.90 1057.07 1024.00 1059.00
C 1028.05 1050.07 1032.20 1042.80 1037.08 1034.08 C 1041.96 1025.35 1044.04 1018.77 1049.70 1009.70 C 1055.35 1000.62 1051.99 988.10 1052.00 977.00 C 1052.01 965.90 1051.13 952.40 1051.00 941.00 C 1050.87 929.60 1050.49 915.38 1051.00 904.00 C 1051.51 892.62 1049.32 878.62 1050.00 868.00 C 1050.68 857.38 1048.43 840.88 1051.03 832.03 C 1053.63 823.17 1066.08 839.38 1071.25 842.75 C 1076.42 846.12 1084.33 855.86 1090.30 860.70 C 1096.27 865.53 1103.91 872.95 1109.75 879.25 C 1115.59 885.55 1122.30 891.12 1128.75 897.25 C 1135.20 903.38 1144.64 910.42 1153.98 906.98 C 1163.31 903.53 1171.47 900.41 1179.77 895.77 C 1188.07 891.13 1195.13 886.78 1202.77 881.77 C 1210.41 876.76 1216.76 871.42 1223.77 865.77 C 1230.78 860.12 1237.74 855.22 1244.92 849.92 C 1252.10 844.61 1258.91 839.33 1266.30 834.30 C 1273.70 829.27 1281.32 823.22 1290.00 821.00
C 1306.39 899.57 1322.93 978.08 1334.00 1058.00
M 1189.00 670.00 
C 1197.70 662.62 1204.30 654.66 1212.75 646.75 C 1221.21 638.84 1228.74 631.15 1237.25 623.25 C 1245.76 615.35 1252.55 607.12 1261.25 599.25 C 1269.94 591.38 1275.90 582.99 1285.25 575.25 C 1294.59 567.50 1299.53 555.88 1313.00 555.00 C 1326.47 554.12 1343.16 552.45 1358.00 552.00 C 1372.84 551.55 1388.12 551.50 1404.00 551.00 C 1419.88 550.50 1435.21 552.59 1452.00 551.00 C 1468.79 549.41 1469.36 565.90 1471.99 579.01 C 1474.62 592.12 1478.68 604.59 1481.33 617.67 C 1483.97 630.75 1487.95 643.22 1490.78 656.22 C 1493.60 669.23 1496.84 682.18 1499.93 695.07 C 1503.01 707.97 1505.76 721.19 1508.99 734.01 C 1512.23 746.83 1514.64 759.22 1517.99 772.01 C 1521.34 784.80 1523.82 798.12 1526.99 811.01 C 1530.16 823.90 1533.07 837.04 1535.99 850.01 C 1538.91 862.98 1542.86 875.57 1545.33 888.67 C 1547.80 901.77 1552.07 914.04 1554.93 927.07 C 1557.78 940.11 1560.81 953.04 1563.93 966.07 C 1567.05 979.11 1569.93 992.64 1572.00 1006.00
C 1558.87 1004.31 1545.14 1004.66 1532.00 1003.00 C 1518.86 1001.34 1503.99 1002.87 1491.00 1001.00 C 1478.01 999.13 1462.64 999.84 1450.00 998.00 C 1437.36 996.16 1421.70 997.23 1410.00 995.00 C 1398.30 992.77 1380.29 996.22 1375.03 985.98 C 1369.76 975.73 1368.77 963.87 1365.22 952.78 C 1361.68 941.68 1359.59 929.08 1356.22 917.78 C 1352.86 906.47 1351.13 894.45 1348.02 882.98 C 1344.91 871.50 1341.70 859.60 1339.07 847.93 C 1336.44 836.25 1333.13 825.42 1330.22 813.78 C 1327.32 802.14 1324.44 789.81 1322.00 778.00
C 1309.62 786.61 1297.49 796.60 1285.25 805.25 C 1273.02 813.90 1260.94 824.40 1248.75 832.75 C 1236.56 841.11 1223.83 852.13 1211.75 859.75 C 1199.68 867.38 1185.36 884.49 1172.75 875.25 C 1160.15 866.00 1148.95 856.79 1137.30 846.70 C 1125.65 836.60 1114.75 826.69 1103.25 816.75 C 1091.74 806.82 1081.07 796.30 1069.75 786.25 C 1058.43 776.20 1047.36 765.02 1035.00 756.00
C 1035.67 838.49 1042.26 921.92 1038.00 1004.00
C 1025.43 1004.49 1014.26 1002.78 1001.93 1002.07 C 989.59 1001.36 976.34 1002.04 964.00 1001.00 C 951.66 999.96 940.73 999.28 928.00 999.00 C 915.27 998.72 904.27 997.11 891.00 997.00 C 877.73 996.89 868.65 993.70 854.00 995.00 C 839.35 996.30 841.94 981.97 841.00 970.00 C 840.06 958.03 840.61 944.29 840.00 932.00 C 839.39 919.71 838.93 907.63 839.00 895.00 C 839.07 882.37 839.56 868.56 839.00 856.00 C 838.44 843.44 837.48 830.81 838.00 818.00 C 838.53 805.19 837.89 793.48 837.00 781.00 C 836.12 768.51 837.72 754.54 837.00 742.00 C 836.28 729.46 838.04 716.40 837.00 704.00 C 835.96 691.60 835.62 678.67 836.00 666.00 C 836.38 653.33 835.04 640.39 835.00 628.00 C 834.96 615.61 835.24 601.90 835.00 590.00 C 834.76 578.10 832.60 563.42 834.00 552.00 C 835.40 540.58 828.43 521.48 841.00 520.00 C 853.57 518.53 865.24 518.72 878.00 519.00 C 890.76 519.28 903.58 518.42 916.00 518.00 C 928.42 517.58 941.76 517.86 954.00 518.00 C 966.24 518.14 981.32 517.24 993.00 518.00 C 1004.68 518.76 1021.26 515.76 1031.22 518.78 C 1041.18 521.80 1042.71 532.53 1050.75 537.25 C 1058.80 541.97 1063.68 550.69 1070.75 556.25 C 1077.82 561.81 1083.56 568.52 1090.25 574.75 C 1096.94 580.99 1103.69 587.01 1110.25 593.75 C 1116.80 600.50 1123.88 606.00 1130.25 612.75 C 1136.62 619.51 1143.45 624.20 1149.75 631.25 C 1156.05 638.30 1163.49 643.27 1169.75 650.25 C 1176.02 657.23 1183.24 662.79 1189.00 670.00 Z"/>
</g>
<g fill="None" fill-opacity="0.0" stroke="&fill_color;" stroke-opacity="1.00" stroke-width="0.3"><path d="
M 1189.00 670.00 
C 1183.24 662.79 1176.02 657.23 1169.75 650.25 C 1163.49 643.27 1156.05 638.30 1149.75 631.25 C 1143.45 624.20 1136.62 619.51 1130.25 612.75 C 1123.88 606.00 1116.80 600.50 1110.25 593.75 C 1103.69 587.01 1096.94 580.99 1090.25 574.75 C 1083.56 568.52 1077.82 561.81 1070.75 556.25 C 1063.68 550.69 1058.80 541.97 1050.75 537.25 C 1042.71 532.53 1041.18 521.80 1031.22 518.78 C 1021.26 515.76 1004.68 518.76 993.00 518.00 C 981.32 517.24 966.24 518.14 954.00 518.00 C 941.76 517.86 928.42 517.58 916.00 518.00 C 903.58 518.42 890.76 519.28 878.00 519.00 C 865.24 518.72 853.57 518.53 841.00 520.00 C 828.43 521.48 835.40 540.58 834.00 552.00 C 832.60 563.42 834.76 578.10 835.00 590.00 C 835.24 601.90 834.96 615.61 835.00 628.00 C 835.04 640.39 836.38 653.33 836.00 666.00 C 835.62 678.67 835.96 691.60 837.00 704.00 C 838.04 716.40 836.28 729.46 837.00 742.00 C 837.72 754.54 836.12 768.51 837.00 781.00 C 837.89 793.48 838.53 805.19 838.00 818.00 C 837.48 830.81 838.44 843.44 839.00 856.00 C 839.56 868.56 839.07 882.37 839.00 895.00 C 838.93 907.63 839.39 919.71 840.00 932.00 C 840.61 944.29 840.06 958.03 841.00 970.00 C 841.94 981.97 839.35 996.30 854.00 995.00 C 868.65 993.70 877.73 996.89 891.00 997.00 C 904.27 997.11 915.27 998.72 928.00 999.00 C 940.73 999.28 951.66 999.96 964.00 1001.00 C 976.34 1002.04 989.59 1001.36 1001.93 1002.07 C 1014.26 1002.78 1025.43 1004.49 1038.00 1004.00
C 1042.26 921.92 1035.67 838.49 1035.00 756.00
C 1047.36 765.02 1058.43 776.20 1069.75 786.25 C 1081.07 796.30 1091.74 806.82 1103.25 816.75 C 1114.75 826.69 1125.65 836.60 1137.30 846.70 C 1148.95 856.79 1160.15 866.00 1172.75 875.25 C 1185.36 884.49 1199.68 867.38 1211.75 859.75 C 1223.83 852.13 1236.56 841.11 1248.75 832.75 C 1260.94 824.40 1273.02 813.90 1285.25 805.25 C 1297.49 796.60 1309.62 786.61 1322.00 778.00
C 1324.44 789.81 1327.32 802.14 1330.22 813.78 C 1333.13 825.42 1336.44 836.25 1339.07 847.93 C 1341.70 859.60 1344.91 871.50 1348.02 882.98 C 1351.13 894.45 1352.86 906.47 1356.22 917.78 C 1359.59 929.08 1361.68 941.68 1365.22 952.78 C 1368.77 963.87 1369.76 975.73 1375.03 985.98 C 1380.29 996.22 1398.30 992.77 1410.00 995.00 C 1421.70 997.23 1437.36 996.16 1450.00 998.00 C 1462.64 999.84 1478.01 999.13 1491.00 1001.00 C 1503.99 1002.87 1518.86 1001.34 1532.00 1003.00 C 1545.14 1004.66 1558.87 1004.31 1572.00 1006.00
C 1569.93 992.64 1567.05 979.11 1563.93 966.07 C 1560.81 953.04 1557.78 940.11 1554.93 927.07 C 1552.07 914.04 1547.80 901.77 1545.33 888.67 C 1542.86 875.57 1538.91 862.98 1535.99 850.01 C 1533.07 837.04 1530.16 823.90 1526.99 811.01 C 1523.82 798.12 1521.34 784.80 1517.99 772.01 C 1514.64 759.22 1512.23 746.83 1508.99 734.01 C 1505.76 721.19 1503.01 707.97 1499.93 695.07 C 1496.84 682.18 1493.60 669.23 1490.78 656.22 C 1487.95 643.22 1483.97 630.75 1481.33 617.67 C 1478.68 604.59 1474.62 592.12 1471.99 579.01 C 1469.36 565.90 1468.79 549.41 1452.00 551.00 C 1435.21 552.59 1419.88 550.50 1404.00 551.00 C 1388.12 551.50 1372.84 551.55 1358.00 552.00 C 1343.16 552.45 1326.47 554.12 1313.00 555.00 C 1299.53 555.88 1294.59 567.50 1285.25 575.25 C 1275.90 582.99 1269.94 591.38 1261.25 599.25 C 1252.55 607.12 1245.76 615.35 1237.25 623.25 C 1228.74 631.15 1221.21 638.84 1212.75 646.75 C 1204.30 654.66 1197.70 662.62 1189.00 670.00 Z"/>
</g>
<g fill="None" fill-opacity="0.0" stroke="&stroke_color;" stroke-opacity="1.00" stroke-width="0.3"><path d="
M 305.00 925.00 
C 313.07 930.12 320.93 937.19 328.25 943.75 C 335.57 950.32 342.15 957.98 349.25 964.75 C 356.34 971.52 362.77 978.37 369.75 985.25 C 376.73 992.13 383.83 999.30 390.75 1006.25 C 397.67 1013.19 403.15 1020.91 410.25 1027.75 C 417.35 1034.59 421.51 1045.10 427.75 1052.25 C 433.98 1059.41 434.94 1072.61 443.25 1077.75 C 451.56 1082.89 466.74 1074.68 477.98 1074.98 C 489.21 1075.27 502.31 1070.71 514.98 1070.98 C 527.64 1071.25 538.41 1064.84 552.78 1066.78 C 567.15 1068.72 570.14 1057.18 572.22 1045.22 C 574.31 1033.27 578.72 1025.72 583.75 1014.75 C 588.77 1003.77 588.42 991.15 588.00 978.00 C 587.58 964.85 588.40 949.38 588.00 936.00 C 587.60 922.62 586.58 909.66 587.00 896.00 C 587.42 882.34 586.88 868.11 586.33 854.67 C 585.78 841.23 585.85 828.37 585.00 815.00 C 584.15 801.63 585.28 787.31 584.00 774.00 C 582.72 760.69 584.60 746.49 584.00 733.00 C 583.40 719.51 583.64 705.42 583.00 692.00 C 582.36 678.58 582.04 665.52 582.00 652.00 C 581.96 638.48 579.77 625.57 580.00 612.00 C 580.23 598.43 580.01 585.27 579.00 572.00 C 577.99 558.73 579.28 545.84 576.00 533.00 C 572.72 520.16 555.92 526.16 544.67 526.67 C 533.42 527.18 519.72 530.79 508.00 532.00 C 496.28 533.21 484.03 535.77 472.00 537.00 C 459.98 538.24 447.67 540.63 435.67 542.67 C 423.67 544.71 411.21 544.91 399.07 547.07 C 386.93 549.23 376.29 548.84 365.08 555.08 C 353.88 561.33 356.25 574.54 355.00 586.00 C 353.75 597.46 355.44 615.64 354.00 627.00 C 352.56 638.36 355.77 656.49 350.77 665.77 C 345.77 675.05 336.01 656.30 330.25 651.75 C 324.48 647.21 317.05 635.27 310.75 629.25 C 304.45 623.22 297.66 614.67 291.25 607.75 C 284.84 600.84 278.09 593.21 270.75 586.25 C 263.42 579.28 259.93 571.89 250.75 565.25 C 241.57 558.61 226.46 564.66 215.00 565.00 C 203.54 565.34 189.85 568.31 177.67 568.67 C 165.49 569.03 152.50 572.58 140.00 573.00 C 127.50 573.42 115.07 576.28 102.22 576.22 C 89.37 576.16 82.66 585.66 82.00 598.00 C 81.34 610.34 78.29 621.77 77.00 634.00 C 75.71 646.22 73.87 658.89 72.00 671.00 C 70.13 683.11 69.22 695.23 67.33 707.33 C 65.44 719.43 64.05 731.96 62.00 744.00 C 59.94 756.04 59.65 768.70 57.78 780.78 C 55.90 792.86 53.55 804.87 52.00 817.00 C 50.45 829.13 48.46 840.83 46.93 852.93 C 45.40 865.02 42.95 877.03 41.00 889.00 C 39.05 900.96 37.31 912.39 35.33 924.33 C 33.35 936.27 31.65 948.98 29.98 960.98 C 28.30 972.97 26.96 985.45 25.31 997.31 C 23.65 1009.17 21.71 1022.45 20.00 1034.00 C 18.29 1045.55 16.33 1060.17 24.75 1068.25 C 33.17 1076.33 38.88 1080.44 47.75 1087.25 C 56.63 1094.05 62.44 1097.43 72.31 1103.70 C 82.17 1109.96 95.10 1108.90 107.00 1107.00 C 118.90 1105.10 132.59 1105.29 145.00 1104.00 C 157.41 1102.71 171.18 1101.37 183.93 1100.93 C 196.67 1100.48 208.22 1097.52 221.00 1097.00 C 233.78 1096.48 247.25 1094.59 259.99 1093.99 C 272.74 1093.39 284.24 1090.26 297.00 1090.00
C 301.07 1035.35 301.27 979.73 305.00 925.00
M 565.00 535.00 
C 574.00 690.24 572.60 848.10 579.00 1004.00
C 562.24 1004.99 544.57 1006.64 528.00 1008.00 C 511.43 1009.36 493.89 1011.08 477.78 1012.78 C 461.67 1014.48 442.54 1015.15 427.33 1017.33 C 412.12 1019.51 406.15 1003.78 395.75 995.25 C 385.36 986.72 377.99 976.62 368.25 967.75 C 358.51 958.88 350.22 949.25 340.75 940.25 C 331.29 931.24 322.64 921.79 313.25 912.75 C 303.86 903.72 295.21 894.22 285.75 885.25 C 276.29 876.28 267.35 865.26 257.00 858.00
C 255.47 872.79 253.66 888.03 253.00 903.00 C 252.34 917.97 251.31 934.46 250.01 949.01 C 248.71 963.56 250.97 982.66 248.00 996.00 C 245.03 1009.34 253.12 1030.70 239.31 1036.31 C 225.49 1041.91 211.33 1040.51 196.78 1042.78 C 182.23 1045.05 166.48 1044.84 151.99 1046.99 C 137.50 1049.14 121.27 1048.78 107.00 1051.00 C 92.73 1053.22 75.71 1052.73 62.00 1055.00 C 48.29 1057.27 26.49 1062.56 29.00 1045.00 C 31.51 1027.44 33.05 1018.37 35.78 1002.78 C 38.51 987.19 39.55 974.83 42.00 960.00 C 44.45 945.17 45.85 931.55 48.00 917.00 C 50.15 902.45 52.18 888.46 54.00 874.00 C 55.82 859.54 58.86 845.79 60.33 831.33 C 61.80 816.87 65.21 803.28 66.93 788.93 C 68.64 774.57 70.65 760.14 72.98 745.98 C 75.31 731.81 76.74 717.11 78.99 702.99 C 81.24 688.87 83.14 674.06 85.00 660.00 C 86.86 645.94 89.94 631.49 91.78 617.78 C 93.62 604.07 93.91 586.63 110.00 587.00 C 126.09 587.37 138.94 581.80 154.01 582.01 C 169.07 582.22 185.02 577.56 199.02 578.02 C 213.03 578.49 232.59 572.63 244.23 577.77 C 255.87 582.91 259.71 594.53 269.25 601.75 C 278.79 608.98 284.20 619.30 292.75 627.25 C 301.31 635.20 308.12 644.48 316.25 652.75 C 324.37 661.03 331.33 670.34 339.25 678.75 C 347.17 687.16 354.65 696.18 363.00 704.00
C 363.93 687.71 364.40 669.16 365.00 653.00 C 365.60 636.84 366.06 617.25 367.00 602.00 C 367.94 586.74 362.62 564.16 380.01 562.01 C 397.39 559.85 409.71 557.25 426.01 555.01 C 442.31 552.77 456.27 550.65 472.02 548.02 C 487.78 545.40 503.39 544.46 519.00 542.00 C 534.61 539.54 549.39 537.25 565.00 535.00 Z"/>
</g>
<g fill="None" fill-opacity="0.0" stroke="&fill_color;" stroke-opacity="1.00" stroke-width="0.3"><path d="
M 565.00 535.00 
C 549.39 537.25 534.61 539.54 519.00 542.00 C 503.39 544.46 487.78 545.40 472.02 548.02 C 456.27 550.65 442.31 552.77 426.01 555.01 C 409.71 557.25 397.39 559.85 380.01 562.01 C 362.62 564.16 367.94 586.74 367.00 602.00 C 366.06 617.25 365.60 636.84 365.00 653.00 C 364.40 669.16 363.93 687.71 363.00 704.00
C 354.65 696.18 347.17 687.16 339.25 678.75 C 331.33 670.34 324.37 661.03 316.25 652.75 C 308.12 644.48 301.31 635.20 292.75 627.25 C 284.20 619.30 278.79 608.98 269.25 601.75 C 259.71 594.53 255.87 582.91 244.23 577.77 C 232.59 572.63 213.03 578.49 199.02 578.02 C 185.02 577.56 169.07 582.22 154.01 582.01 C 138.94 581.80 126.09 587.37 110.00 587.00 C 93.91 586.63 93.62 604.07 91.78 617.78 C 89.94 631.49 86.86 645.94 85.00 660.00 C 83.14 674.06 81.24 688.87 78.99 702.99 C 76.74 717.11 75.31 731.81 72.98 745.98 C 70.65 760.14 68.64 774.57 66.93 788.93 C 65.21 803.28 61.80 816.87 60.33 831.33 C 58.86 845.79 55.82 859.54 54.00 874.00 C 52.18 888.46 50.15 902.45 48.00 917.00 C 45.85 931.55 44.45 945.17 42.00 960.00 C 39.55 974.83 38.51 987.19 35.78 1002.78 C 33.05 1018.37 31.51 1027.44 29.00 1045.00 C 26.49 1062.56 48.29 1057.27 62.00 1055.00 C 75.71 1052.73 92.73 1053.22 107.00 1051.00 C 121.27 1048.78 137.50 1049.14 151.99 1046.99 C 166.48 1044.84 182.23 1045.05 196.78 1042.78 C 211.33 1040.51 225.49 1041.91 239.31 1036.31 C 253.12 1030.70 245.03 1009.34 248.00 996.00 C 250.97 982.66 248.71 963.56 250.01 949.01 C 251.31 934.46 252.34 917.97 253.00 903.00 C 253.66 888.03 255.47 872.79 257.00 858.00
C 267.35 865.26 276.29 876.28 285.75 885.25 C 295.21 894.22 303.86 903.72 313.25 912.75 C 322.64 921.79 331.29 931.24 340.75 940.25 C 350.22 949.25 358.51 958.88 368.25 967.75 C 377.99 976.62 385.36 986.72 395.75 995.25 C 406.15 1003.78 412.12 1019.51 427.33 1017.33 C 442.54 1015.15 461.67 1014.48 477.78 1012.78 C 493.89 1011.08 511.43 1009.36 528.00 1008.00 C 544.57 1006.64 562.24 1004.99 579.00 1004.00
C 572.60 848.10 574.00 690.24 565.00 535.00 Z"/>
</g>
<g fill="None" fill-opacity="0.0" stroke="&stroke_color;" stroke-opacity="1.00" stroke-width="0.3"><path d="
M 782.00 1065.00 
C 788.12 1047.64 789.83 1030.95 796.69 1013.69 C 803.55 996.44 808.84 979.18 806.99 959.01 C 805.14 938.84 806.16 917.40 804.00 897.00 C 801.84 876.60 804.03 854.68 801.99 834.01 C 799.95 813.33 799.61 793.36 799.00 772.00 C 798.39 750.64 795.50 732.36 796.00 710.00 C 796.50 687.64 791.48 672.75 792.33 648.67 C 793.18 624.59 770.72 626.16 750.00 628.00 C 729.28 629.84 707.12 627.90 686.00 630.00 C 664.88 632.10 648.13 633.11 626.00 635.00 C 603.87 636.89 607.45 662.20 608.00 682.00 C 608.55 701.81 609.41 725.20 609.00 746.00 C 608.59 766.80 609.01 789.25 610.00 810.00 C 610.99 830.75 609.65 853.32 611.00 874.00 C 612.35 894.68 610.95 917.49 612.01 937.99 C 613.07 958.49 613.11 979.33 616.07 998.93 C 619.04 1018.52 623.00 1035.39 625.00 1055.00
C 638.20 1056.42 652.73 1055.04 665.98 1056.02 C 679.22 1057.00 693.24 1056.83 706.33 1057.67 C 719.42 1058.51 734.23 1058.51 747.00 1059.00 C 759.77 1059.49 774.87 1055.88 782.00 1065.00
M 779.00 637.00 
C 786.34 753.99 790.80 871.71 797.00 989.00
C 739.66 989.00 682.33 989.00 625.00 989.00
C 623.51 874.88 619.73 761.32 619.00 647.00
C 672.05 642.59 725.43 639.40 779.00 637.00 Z"/>
</g>
<g fill="None" fill-opacity="0.0" stroke="&fill_color;" stroke-opacity="1.00" stroke-width="0.3"><path d="
M 779.00 637.00 
C 725.43 639.40 672.05 642.59 619.00 647.00
C 619.73 761.32 623.51 874.88 625.00 989.00
C 682.33 989.00 739.66 989.00 797.00 989.00
C 790.80 871.71 786.34 753.99 779.00 637.00 Z"/>
</g>
<g fill="&stroke_color;" fill-opacity="0.00" stroke="None">
<path d="
M 0.00 1600.00 
L 1600.00 1600.00
L 1600.00 0.00
L 0.00 0.00
L 0.00 1600.00
M 700.00 487.00 
C 712.13 488.73 724.18 496.12 736.07 499.93 C 747.97 503.73 758.51 511.30 770.23 515.77 C 781.95 520.24 795.41 529.04 791.01 543.01 C 786.61 556.97 782.47 564.16 775.70 576.70 C 768.92 589.23 762.15 592.72 755.23 606.23 C 748.31 619.74 731.22 617.43 716.00 617.00 C 700.78 616.57 682.31 616.93 667.00 617.00 C 651.69 617.07 634.27 620.45 627.70 606.31 C 621.12 592.16 615.21 588.58 609.03 574.97 C 602.84 561.36 600.06 552.01 599.07 535.93 C 598.08 519.85 613.56 517.56 625.22 512.22 C 636.89 506.89 647.75 500.94 660.08 497.08 C 672.40 493.21 686.12 485.02 700.00 487.00
M 1334.00 1058.00 
C 1322.93 978.08 1306.39 899.57 1290.00 821.00
C 1281.32 823.22 1273.70 829.27 1266.30 834.30 C 1258.91 839.33 1252.10 844.61 1244.92 849.92 C 1237.74 855.22 1230.78 860.12 1223.77 865.77 C 1216.76 871.42 1210.41 876.76 1202.77 881.77 C 1195.13 886.78 1188.07 891.13 1179.77 895.77 C 1171.47 900.41 1163.31 903.53 1153.98 906.98 C 1144.64 910.42 1135.20 903.38 1128.75 897.25 C 1122.30 891.12 1115.59 885.55 1109.75 879.25 C 1103.91 872.95 1096.27 865.53 1090.30 860.70 C 1084.33 855.86 1076.42 846.12 1071.25 842.75 C 1066.08 839.38 1053.63 823.17 1051.03 832.03 C 1048.43 840.88 1050.68 857.38 1050.00 868.00 C 1049.32 878.62 1051.51 892.62 1051.00 904.00 C 1050.49 915.38 1050.87 929.60 1051.00 941.00 C 1051.13 952.40 1052.01 965.90 1052.00 977.00 C 1051.99 988.10 1055.35 1000.62 1049.70 1009.70 C 1044.04 1018.77 1041.96 1025.35 1037.08 1034.08 C 1032.20 1042.80 1028.05 1050.07 1024.00 1059.00
C 958.90 1057.07 893.24 1057.37 829.00 1052.00
C 828.33 1036.25 827.51 1021.11 828.00 1005.00 C 828.49 988.89 827.26 973.03 827.00 957.00 C 826.74 940.97 827.34 924.03 827.00 908.00 C 826.66 891.97 826.08 876.07 826.00 860.00 C 825.92 843.93 826.76 827.90 826.00 812.00 C 825.24 796.10 825.08 780.11 825.00 764.00 C 824.92 747.89 823.51 732.32 824.00 716.00 C 824.49 699.68 823.81 683.31 824.00 667.00 C 824.19 650.69 824.34 635.89 823.22 619.78 C 822.11 603.67 823.74 587.54 823.00 571.00 C 822.26 554.46 824.10 539.91 824.00 523.00 C 823.90 506.09 841.28 505.83 856.00 506.00 C 870.72 506.17 889.74 505.98 905.00 506.00 C 920.26 506.02 937.16 505.70 952.07 506.93 C 966.99 508.15 986.57 506.14 1001.00 507.00 C 1015.43 507.86 1034.51 503.35 1044.25 512.75 C 1053.98 522.15 1059.77 528.79 1068.75 537.25 C 1077.74 545.71 1083.94 553.53 1092.75 561.25 C 1101.56 568.96 1109.39 577.29 1117.75 585.25 C 1126.12 593.21 1135.52 600.25 1143.25 608.75 C 1150.97 617.25 1160.97 624.71 1168.75 632.25 C 1176.53 639.79 1186.85 653.42 1195.70 644.70 C 1204.55 635.97 1212.25 629.34 1220.75 620.75 C 1229.26 612.16 1236.79 604.87 1245.25 596.25 C 1253.70 587.62 1261.14 580.35 1270.25 572.25 C 1279.36 564.15 1285.12 556.46 1294.75 547.75 C 1304.38 539.05 1322.12 541.85 1336.07 541.07 C 1350.02 540.30 1369.74 540.40 1384.00 540.00 C 1398.26 539.60 1418.33 537.98 1432.00 539.00 C 1445.67 540.02 1465.77 535.10 1473.92 546.08 C 1482.07 557.06 1481.13 570.38 1484.98 583.02 C 1488.82 595.67 1489.83 610.40 1493.78 623.22 C 1497.72 636.05 1498.58 650.52 1502.78 663.22 C 1506.98 675.92 1509.66 689.08 1512.98 702.02 C 1516.29 714.97 1520.03 726.96 1522.92 740.08 C 1525.82 753.19 1529.00 766.86 1531.93 780.07 C 1534.86 793.28 1538.18 806.75 1540.99 820.01 C 1543.81 833.27 1547.24 846.85 1549.93 860.07 C 1552.62 873.30 1555.97 886.78 1559.33 899.67 C 1562.69 912.57 1567.24 924.34 1569.78 937.22 C 1572.31 950.10 1576.47 964.74 1578.92 977.08 C 1581.37 989.43 1587.77 1005.84 1577.75 1014.75 C 1567.74 1023.66 1562.62 1030.83 1554.25 1040.25 C 1545.87 1049.67 1542.26 1062.38 1527.00 1061.00 C 1511.74 1059.62 1493.61 1062.17 1478.00 1061.00 C 1462.39 1059.83 1446.12 1059.52 1430.00 1060.00 C 1413.88 1060.48 1398.11 1058.74 1382.00 1059.00 C 1365.89 1059.26 1350.05 1058.03 1334.00 1058.00
M 305.00 925.00 
C 301.27 979.73 301.07 1035.35 297.00 1090.00
C 284.24 1090.26 272.74 1093.39 259.99 1093.99 C 247.25 1094.59 233.78 1096.48 221.00 1097.00 C 208.22 1097.52 196.67 1100.48 183.93 1100.93 C 171.18 1101.37 157.41 1102.71 145.00 1104.00 C 132.59 1105.29 118.90 1105.10 107.00 1107.00 C 95.10 1108.90 82.17 1109.96 72.31 1103.70 C 62.44 1097.43 56.63 1094.05 47.75 1087.25 C 38.88 1080.44 33.17 1076.33 24.75 1068.25 C 16.33 1060.17 18.29 1045.55 20.00 1034.00 C 21.71 1022.45 23.65 1009.17 25.31 997.31 C 26.96 985.45 28.30 972.97 29.98 960.98 C 31.65 948.98 33.35 936.27 35.33 924.33 C 37.31 912.39 39.05 900.96 41.00 889.00 C 42.95 877.03 45.40 865.02 46.93 852.93 C 48.46 840.83 50.45 829.13 52.00 817.00 C 53.55 804.87 55.90 792.86 57.78 780.78 C 59.65 768.70 59.94 756.04 62.00 744.00 C 64.05 731.96 65.44 719.43 67.33 707.33 C 69.22 695.23 70.13 683.11 72.00 671.00 C 73.87 658.89 75.71 646.22 77.00 634.00 C 78.29 621.77 81.34 610.34 82.00 598.00 C 82.66 585.66 89.37 576.16 102.22 576.22 C 115.07 576.28 127.50 573.42 140.00 573.00 C 152.50 572.58 165.49 569.03 177.67 568.67 C 189.85 568.31 203.54 565.34 215.00 565.00 C 226.46 564.66 241.57 558.61 250.75 565.25 C 259.93 571.89 263.42 579.28 270.75 586.25 C 278.09 593.21 284.84 600.84 291.25 607.75 C 297.66 614.67 304.45 623.22 310.75 629.25 C 317.05 635.27 324.48 647.21 330.25 651.75 C 336.01 656.30 345.77 675.05 350.77 665.77 C 355.77 656.49 352.56 638.36 354.00 627.00 C 355.44 615.64 353.75 597.46 355.00 586.00 C 356.25 574.54 353.88 561.33 365.08 555.08 C 376.29 548.84 386.93 549.23 399.07 547.07 C 411.21 544.91 423.67 544.71 435.67 542.67 C 447.67 540.63 459.98 538.24 472.00 537.00 C 484.03 535.77 496.28 533.21 508.00 532.00 C 519.72 530.79 533.42 527.18 544.67 526.67 C 555.92 526.16 572.72 520.16 576.00 533.00 C 579.28 545.84 577.99 558.73 579.00 572.00 C 580.01 585.27 580.23 598.43 580.00 612.00 C 579.77 625.57 581.96 638.48 582.00 652.00 C 582.04 665.52 582.36 678.58 583.00 692.00 C 583.64 705.42 583.40 719.51 584.00 733.00 C 584.60 746.49 582.72 760.69 584.00 774.00 C 585.28 787.31 584.15 801.63 585.00 815.00 C 585.85 828.37 585.78 841.23 586.33 854.67 C 586.88 868.11 587.42 882.34 587.00 896.00 C 586.58 909.66 587.60 922.62 588.00 936.00 C 588.40 949.38 587.58 964.85 588.00 978.00 C 588.42 991.15 588.77 1003.77 583.75 1014.75 C 578.72 1025.72 574.31 1033.27 572.22 1045.22 C 570.14 1057.18 567.15 1068.72 552.78 1066.78 C 538.41 1064.84 527.64 1071.25 514.98 1070.98 C 502.31 1070.71 489.21 1075.27 477.98 1074.98 C 466.74 1074.68 451.56 1082.89 443.25 1077.75 C 434.94 1072.61 433.98 1059.41 427.75 1052.25 C 421.51 1045.10 417.35 1034.59 410.25 1027.75 C 403.15 1020.91 397.67 1013.19 390.75 1006.25 C 383.83 999.30 376.73 992.13 369.75 985.25 C 362.77 978.37 356.34 971.52 349.25 964.75 C 342.15 957.98 335.57 950.32 328.25 943.75 C 320.93 937.19 313.07 930.12 305.00 925.00
M 782.00 1065.00 
C 774.87 1055.88 759.77 1059.49 747.00 1059.00 C 734.23 1058.51 719.42 1058.51 706.33 1057.67 C 693.24 1056.83 679.22 1057.00 665.98 1056.02 C 652.73 1055.04 638.20 1056.42 625.00 1055.00
C 623.00 1035.39 619.04 1018.52 616.07 998.93 C 613.11 979.33 613.07 958.49 612.01 937.99 C 610.95 917.49 612.35 894.68 611.00 874.00 C 609.65 853.32 610.99 830.75 610.00 810.00 C 609.01 789.25 608.59 766.80 609.00 746.00 C 609.41 725.20 608.55 701.81 608.00 682.00 C 607.45 662.20 603.87 636.89 626.00 635.00 C 648.13 633.11 664.88 632.10 686.00 630.00 C 707.12 627.90 729.28 629.84 750.00 628.00 C 770.72 626.16 793.18 624.59 792.33 648.67 C 791.48 672.75 796.50 687.64 796.00 710.00 C 795.50 732.36 798.39 750.64 799.00 772.00 C 799.61 793.36 799.95 813.33 801.99 834.01 C 804.03 854.68 801.84 876.60 804.00 897.00 C 806.16 917.40 805.14 938.84 806.99 959.01 C 808.84 979.18 803.55 996.44 796.69 1013.69 C 789.83 1030.95 788.12 1047.64 782.00 1065.00 Z"/>
</g>
<g fill="&stroke_color;" fill-opacity="1.00" stroke="None">
<path d="
M 700.00 487.00 
C 686.12 485.02 672.40 493.21 660.08 497.08 C 647.75 500.94 636.89 506.89 625.22 512.22 C 613.56 517.56 598.08 519.85 599.07 535.93 C 600.06 552.01 602.84 561.36 609.03 574.97 C 615.21 588.58 621.12 592.16 627.70 606.31 C 634.27 620.45 651.69 617.07 667.00 617.00 C 682.31 616.93 700.78 616.57 716.00 617.00 C 731.22 617.43 748.31 619.74 755.23 606.23 C 762.15 592.72 768.92 589.23 775.70 576.70 C 782.47 564.16 786.61 556.97 791.01 543.01 C 795.41 529.04 781.95 520.24 770.23 515.77 C 758.51 511.30 747.97 503.73 736.07 499.93 C 724.18 496.12 712.13 488.73 700.00 487.00
M 696.00 496.00 
C 705.92 496.77 716.76 505.65 726.69 508.31 C 736.63 510.96 747.72 518.04 757.08 521.92 C 766.43 525.81 780.49 532.06 775.07 543.07 C 769.66 554.09 766.52 561.82 760.08 572.08 C 753.64 582.33 751.27 593.31 737.00 592.00 C 722.73 590.69 707.25 592.14 693.00 592.00 C 678.75 591.86 664.04 590.97 650.00 592.00 C 635.96 593.03 634.14 580.30 627.70 570.30 C 621.25 560.31 617.35 553.14 613.22 541.78 C 609.10 530.42 625.13 524.79 634.07 521.07 C 643.02 517.35 653.90 510.07 663.69 507.69 C 673.49 505.32 685.54 495.19 696.00 496.00 Z"/>
</g>
<g fill="&fill_color;" fill-opacity="1.00" stroke="None">
<path d="
M 696.00 496.00 
C 685.54 495.19 673.49 505.32 663.69 507.69 C 653.90 510.07 643.02 517.35 634.07 521.07 C 625.13 524.79 609.10 530.42 613.22 541.78 C 617.35 553.14 621.25 560.31 627.70 570.30 C 634.14 580.30 635.96 593.03 650.00 592.00 C 664.04 590.97 678.75 591.86 693.00 592.00 C 707.25 592.14 722.73 590.69 737.00 592.00 C 751.27 593.31 753.64 582.33 760.08 572.08 C 766.52 561.82 769.66 554.09 775.07 543.07 C 780.49 532.06 766.43 525.81 757.08 521.92 C 747.72 518.04 736.63 510.96 726.69 508.31 C 716.76 505.65 705.92 496.77 696.00 496.00 Z"/>
</g>
<g fill="&stroke_color;" fill-opacity="1.00" stroke="None">
<path d="
M 1334.00 1058.00 
C 1350.05 1058.03 1365.89 1059.26 1382.00 1059.00 C 1398.11 1058.74 1413.88 1060.48 1430.00 1060.00 C 1446.12 1059.52 1462.39 1059.83 1478.00 1061.00 C 1493.61 1062.17 1511.74 1059.62 1527.00 1061.00 C 1542.26 1062.38 1545.87 1049.67 1554.25 1040.25 C 1562.62 1030.83 1567.74 1023.66 1577.75 1014.75 C 1587.77 1005.84 1581.37 989.43 1578.92 977.08 C 1576.47 964.74 1572.31 950.10 1569.78 937.22 C 1567.24 924.34 1562.69 912.57 1559.33 899.67 C 1555.97 886.78 1552.62 873.30 1549.93 860.07 C 1547.24 846.85 1543.81 833.27 1540.99 820.01 C 1538.18 806.75 1534.86 793.28 1531.93 780.07 C 1529.00 766.86 1525.82 753.19 1522.92 740.08 C 1520.03 726.96 1516.29 714.97 1512.98 702.02 C 1509.66 689.08 1506.98 675.92 1502.78 663.22 C 1498.58 650.52 1497.72 636.05 1493.78 623.22 C 1489.83 610.40 1488.82 595.67 1484.98 583.02 C 1481.13 570.38 1482.07 557.06 1473.92 546.08 C 1465.77 535.10 1445.67 540.02 1432.00 539.00 C 1418.33 537.98 1398.26 539.60 1384.00 540.00 C 1369.74 540.40 1350.02 540.30 1336.07 541.07 C 1322.12 541.85 1304.38 539.05 1294.75 547.75 C 1285.12 556.46 1279.36 564.15 1270.25 572.25 C 1261.14 580.35 1253.70 587.62 1245.25 596.25 C 1236.79 604.87 1229.26 612.16 1220.75 620.75 C 1212.25 629.34 1204.55 635.97 1195.70 644.70 C 1186.85 653.42 1176.53 639.79 1168.75 632.25 C 1160.97 624.71 1150.97 617.25 1143.25 608.75 C 1135.52 600.25 1126.12 593.21 1117.75 585.25 C 1109.39 577.29 1101.56 568.96 1092.75 561.25 C 1083.94 553.53 1077.74 545.71 1068.75 537.25 C 1059.77 528.79 1053.98 522.15 1044.25 512.75 C 1034.51 503.35 1015.43 507.86 1001.00 507.00 C 986.57 506.14 966.99 508.15 952.07 506.93 C 937.16 505.70 920.26 506.02 905.00 506.00 C 889.74 505.98 870.72 506.17 856.00 506.00 C 841.28 505.83 823.90 506.09 824.00 523.00 C 824.10 539.91 822.26 554.46 823.00 571.00 C 823.74 587.54 822.11 603.67 823.22 619.78 C 824.34 635.89 824.19 650.69 824.00 667.00 C 823.81 683.31 824.49 699.68 824.00 716.00 C 823.51 732.32 824.92 747.89 825.00 764.00 C 825.08 780.11 825.24 796.10 826.00 812.00 C 826.76 827.90 825.92 843.93 826.00 860.00 C 826.08 876.07 826.66 891.97 827.00 908.00 C 827.34 924.03 826.74 940.97 827.00 957.00 C 827.26 973.03 828.49 988.89 828.00 1005.00 C 827.51 1021.11 828.33 1036.25 829.00 1052.00
C 893.24 1057.37 958.90 1057.07 1024.00 1059.00
C 1028.05 1050.07 1032.20 1042.80 1037.08 1034.08 C 1041.96 1025.35 1044.04 1018.77 1049.70 1009.70 C 1055.35 1000.62 1051.99 988.10 1052.00 977.00 C 1052.01 965.90 1051.13 952.40 1051.00 941.00 C 1050.87 929.60 1050.49 915.38 1051.00 904.00 C 1051.51 892.62 1049.32 878.62 1050.00 868.00 C 1050.68 857.38 1048.43 840.88 1051.03 832.03 C 1053.63 823.17 1066.08 839.38 1071.25 842.75 C 1076.42 846.12 1084.33 855.86 1090.30 860.70 C 1096.27 865.53 1103.91 872.95 1109.75 879.25 C 1115.59 885.55 1122.30 891.12 1128.75 897.25 C 1135.20 903.38 1144.64 910.42 1153.98 906.98 C 1163.31 903.53 1171.47 900.41 1179.77 895.77 C 1188.07 891.13 1195.13 886.78 1202.77 881.77 C 1210.41 876.76 1216.76 871.42 1223.77 865.77 C 1230.78 860.12 1237.74 855.22 1244.92 849.92 C 1252.10 844.61 1258.91 839.33 1266.30 834.30 C 1273.70 829.27 1281.32 823.22 1290.00 821.00
C 1306.39 899.57 1322.93 978.08 1334.00 1058.00
M 1189.00 670.00 
C 1197.70 662.62 1204.30 654.66 1212.75 646.75 C 1221.21 638.84 1228.74 631.15 1237.25 623.25 C 1245.76 615.35 1252.55 607.12 1261.25 599.25 C 1269.94 591.38 1275.90 582.99 1285.25 575.25 C 1294.59 567.50 1299.53 555.88 1313.00 555.00 C 1326.47 554.12 1343.16 552.45 1358.00 552.00 C 1372.84 551.55 1388.12 551.50 1404.00 551.00 C 1419.88 550.50 1435.21 552.59 1452.00 551.00 C 1468.79 549.41 1469.36 565.90 1471.99 579.01 C 1474.62 592.12 1478.68 604.59 1481.33 617.67 C 1483.97 630.75 1487.95 643.22 1490.78 656.22 C 1493.60 669.23 1496.84 682.18 1499.93 695.07 C 1503.01 707.97 1505.76 721.19 1508.99 734.01 C 1512.23 746.83 1514.64 759.22 1517.99 772.01 C 1521.34 784.80 1523.82 798.12 1526.99 811.01 C 1530.16 823.90 1533.07 837.04 1535.99 850.01 C 1538.91 862.98 1542.86 875.57 1545.33 888.67 C 1547.80 901.77 1552.07 914.04 1554.93 927.07 C 1557.78 940.11 1560.81 953.04 1563.93 966.07 C 1567.05 979.11 1569.93 992.64 1572.00 1006.00
C 1558.87 1004.31 1545.14 1004.66 1532.00 1003.00 C 1518.86 1001.34 1503.99 1002.87 1491.00 1001.00 C 1478.01 999.13 1462.64 999.84 1450.00 998.00 C 1437.36 996.16 1421.70 997.23 1410.00 995.00 C 1398.30 992.77 1380.29 996.22 1375.03 985.98 C 1369.76 975.73 1368.77 963.87 1365.22 952.78 C 1361.68 941.68 1359.59 929.08 1356.22 917.78 C 1352.86 906.47 1351.13 894.45 1348.02 882.98 C 1344.91 871.50 1341.70 859.60 1339.07 847.93 C 1336.44 836.25 1333.13 825.42 1330.22 813.78 C 1327.32 802.14 1324.44 789.81 1322.00 778.00
C 1309.62 786.61 1297.49 796.60 1285.25 805.25 C 1273.02 813.90 1260.94 824.40 1248.75 832.75 C 1236.56 841.11 1223.83 852.13 1211.75 859.75 C 1199.68 867.38 1185.36 884.49 1172.75 875.25 C 1160.15 866.00 1148.95 856.79 1137.30 846.70 C 1125.65 836.60 1114.75 826.69 1103.25 816.75 C 1091.74 806.82 1081.07 796.30 1069.75 786.25 C 1058.43 776.20 1047.36 765.02 1035.00 756.00
C 1035.67 838.49 1042.26 921.92 1038.00 1004.00
C 1025.43 1004.49 1014.26 1002.78 1001.93 1002.07 C 989.59 1001.36 976.34 1002.04 964.00 1001.00 C 951.66 999.96 940.73 999.28 928.00 999.00 C 915.27 998.72 904.27 997.11 891.00 997.00 C 877.73 996.89 868.65 993.70 854.00 995.00 C 839.35 996.30 841.94 981.97 841.00 970.00 C 840.06 958.03 840.61 944.29 840.00 932.00 C 839.39 919.71 838.93 907.63 839.00 895.00 C 839.07 882.37 839.56 868.56 839.00 856.00 C 838.44 843.44 837.48 830.81 838.00 818.00 C 838.53 805.19 837.89 793.48 837.00 781.00 C 836.12 768.51 837.72 754.54 837.00 742.00 C 836.28 729.46 838.04 716.40 837.00 704.00 C 835.96 691.60 835.62 678.67 836.00 666.00 C 836.38 653.33 835.04 640.39 835.00 628.00 C 834.96 615.61 835.24 601.90 835.00 590.00 C 834.76 578.10 832.60 563.42 834.00 552.00 C 835.40 540.58 828.43 521.48 841.00 520.00 C 853.57 518.53 865.24 518.72 878.00 519.00 C 890.76 519.28 903.58 518.42 916.00 518.00 C 928.42 517.58 941.76 517.86 954.00 518.00 C 966.24 518.14 981.32 517.24 993.00 518.00 C 1004.68 518.76 1021.26 515.76 1031.22 518.78 C 1041.18 521.80 1042.71 532.53 1050.75 537.25 C 1058.80 541.97 1063.68 550.69 1070.75 556.25 C 1077.82 561.81 1083.56 568.52 1090.25 574.75 C 1096.94 580.99 1103.69 587.01 1110.25 593.75 C 1116.80 600.50 1123.88 606.00 1130.25 612.75 C 1136.62 619.51 1143.45 624.20 1149.75 631.25 C 1156.05 638.30 1163.49 643.27 1169.75 650.25 C 1176.02 657.23 1183.24 662.79 1189.00 670.00 Z"/>
</g>
<g fill="&fill_color;" fill-opacity="1.00" stroke="None">
<path d="
M 1189.00 670.00 
C 1183.24 662.79 1176.02 657.23 1169.75 650.25 C 1163.49 643.27 1156.05 638.30 1149.75 631.25 C 1143.45 624.20 1136.62 619.51 1130.25 612.75 C 1123.88 606.00 1116.80 600.50 1110.25 593.75 C 1103.69 587.01 1096.94 580.99 1090.25 574.75 C 1083.56 568.52 1077.82 561.81 1070.75 556.25 C 1063.68 550.69 1058.80 541.97 1050.75 537.25 C 1042.71 532.53 1041.18 521.80 1031.22 518.78 C 1021.26 515.76 1004.68 518.76 993.00 518.00 C 981.32 517.24 966.24 518.14 954.00 518.00 C 941.76 517.86 928.42 517.58 916.00 518.00 C 903.58 518.42 890.76 519.28 878.00 519.00 C 865.24 518.72 853.57 518.53 841.00 520.00 C 828.43 521.48 835.40 540.58 834.00 552.00 C 832.60 563.42 834.76 578.10 835.00 590.00 C 835.24 601.90 834.96 615.61 835.00 628.00 C 835.04 640.39 836.38 653.33 836.00 666.00 C 835.62 678.67 835.96 691.60 837.00 704.00 C 838.04 716.40 836.28 729.46 837.00 742.00 C 837.72 754.54 836.12 768.51 837.00 781.00 C 837.89 793.48 838.53 805.19 838.00 818.00 C 837.48 830.81 838.44 843.44 839.00 856.00 C 839.56 868.56 839.07 882.37 839.00 895.00 C 838.93 907.63 839.39 919.71 840.00 932.00 C 840.61 944.29 840.06 958.03 841.00 970.00 C 841.94 981.97 839.35 996.30 854.00 995.00 C 868.65 993.70 877.73 996.89 891.00 997.00 C 904.27 997.11 915.27 998.72 928.00 999.00 C 940.73 999.28 951.66 999.96 964.00 1001.00 C 976.34 1002.04 989.59 1001.36 1001.93 1002.07 C 1014.26 1002.78 1025.43 1004.49 1038.00 1004.00
C 1042.26 921.92 1035.67 838.49 1035.00 756.00
C 1047.36 765.02 1058.43 776.20 1069.75 786.25 C 1081.07 796.30 1091.74 806.82 1103.25 816.75 C 1114.75 826.69 1125.65 836.60 1137.30 846.70 C 1148.95 856.79 1160.15 866.00 1172.75 875.25 C 1185.36 884.49 1199.68 867.38 1211.75 859.75 C 1223.83 852.13 1236.56 841.11 1248.75 832.75 C 1260.94 824.40 1273.02 813.90 1285.25 805.25 C 1297.49 796.60 1309.62 786.61 1322.00 778.00
C 1324.44 789.81 1327.32 802.14 1330.22 813.78 C 1333.13 825.42 1336.44 836.25 1339.07 847.93 C 1341.70 859.60 1344.91 871.50 1348.02 882.98 C 1351.13 894.45 1352.86 906.47 1356.22 917.78 C 1359.59 929.08 1361.68 941.68 1365.22 952.78 C 1368.77 963.87 1369.76 975.73 1375.03 985.98 C 1380.29 996.22 1398.30 992.77 1410.00 995.00 C 1421.70 997.23 1437.36 996.16 1450.00 998.00 C 1462.64 999.84 1478.01 999.13 1491.00 1001.00 C 1503.99 1002.87 1518.86 1001.34 1532.00 1003.00 C 1545.14 1004.66 1558.87 1004.31 1572.00 1006.00
C 1569.93 992.64 1567.05 979.11 1563.93 966.07 C 1560.81 953.04 1557.78 940.11 1554.93 927.07 C 1552.07 914.04 1547.80 901.77 1545.33 888.67 C 1542.86 875.57 1538.91 862.98 1535.99 850.01 C 1533.07 837.04 1530.16 823.90 1526.99 811.01 C 1523.82 798.12 1521.34 784.80 1517.99 772.01 C 1514.64 759.22 1512.23 746.83 1508.99 734.01 C 1505.76 721.19 1503.01 707.97 1499.93 695.07 C 1496.84 682.18 1493.60 669.23 1490.78 656.22 C 1487.95 643.22 1483.97 630.75 1481.33 617.67 C 1478.68 604.59 1474.62 592.12 1471.99 579.01 C 1469.36 565.90 1468.79 549.41 1452.00 551.00 C 1435.21 552.59 1419.88 550.50 1404.00 551.00 C 1388.12 551.50 1372.84 551.55 1358.00 552.00 C 1343.16 552.45 1326.47 554.12 1313.00 555.00 C 1299.53 555.88 1294.59 567.50 1285.25 575.25 C 1275.90 582.99 1269.94 591.38 1261.25 599.25 C 1252.55 607.12 1245.76 615.35 1237.25 623.25 C 1228.74 631.15 1221.21 638.84 1212.75 646.75 C 1204.30 654.66 1197.70 662.62 1189.00 670.00 Z"/>
</g>
<g fill="&stroke_color;" fill-opacity="1.00" stroke="None">
<path d="
M 305.00 925.00 
C 313.07 930.12 320.93 937.19 328.25 943.75 C 335.57 950.32 342.15 957.98 349.25 964.75 C 356.34 971.52 362.77 978.37 369.75 985.25 C 376.73 992.13 383.83 999.30 390.75 1006.25 C 397.67 1013.19 403.15 1020.91 410.25 1027.75 C 417.35 1034.59 421.51 1045.10 427.75 1052.25 C 433.98 1059.41 434.94 1072.61 443.25 1077.75 C 451.56 1082.89 466.74 1074.68 477.98 1074.98 C 489.21 1075.27 502.31 1070.71 514.98 1070.98 C 527.64 1071.25 538.41 1064.84 552.78 1066.78 C 567.15 1068.72 570.14 1057.18 572.22 1045.22 C 574.31 1033.27 578.72 1025.72 583.75 1014.75 C 588.77 1003.77 588.42 991.15 588.00 978.00 C 587.58 964.85 588.40 949.38 588.00 936.00 C 587.60 922.62 586.58 909.66 587.00 896.00 C 587.42 882.34 586.88 868.11 586.33 854.67 C 585.78 841.23 585.85 828.37 585.00 815.00 C 584.15 801.63 585.28 787.31 584.00 774.00 C 582.72 760.69 584.60 746.49 584.00 733.00 C 583.40 719.51 583.64 705.42 583.00 692.00 C 582.36 678.58 582.04 665.52 582.00 652.00 C 581.96 638.48 579.77 625.57 580.00 612.00 C 580.23 598.43 580.01 585.27 579.00 572.00 C 577.99 558.73 579.28 545.84 576.00 533.00 C 572.72 520.16 555.92 526.16 544.67 526.67 C 533.42 527.18 519.72 530.79 508.00 532.00 C 496.28 533.21 484.03 535.77 472.00 537.00 C 459.98 538.24 447.67 540.63 435.67 542.67 C 423.67 544.71 411.21 544.91 399.07 547.07 C 386.93 549.23 376.29 548.84 365.08 555.08 C 353.88 561.33 356.25 574.54 355.00 586.00 C 353.75 597.46 355.44 615.64 354.00 627.00 C 352.56 638.36 355.77 656.49 350.77 665.77 C 345.77 675.05 336.01 656.30 330.25 651.75 C 324.48 647.21 317.05 635.27 310.75 629.25 C 304.45 623.22 297.66 614.67 291.25 607.75 C 284.84 600.84 278.09 593.21 270.75 586.25 C 263.42 579.28 259.93 571.89 250.75 565.25 C 241.57 558.61 226.46 564.66 215.00 565.00 C 203.54 565.34 189.85 568.31 177.67 568.67 C 165.49 569.03 152.50 572.58 140.00 573.00 C 127.50 573.42 115.07 576.28 102.22 576.22 C 89.37 576.16 82.66 585.66 82.00 598.00 C 81.34 610.34 78.29 621.77 77.00 634.00 C 75.71 646.22 73.87 658.89 72.00 671.00 C 70.13 683.11 69.22 695.23 67.33 707.33 C 65.44 719.43 64.05 731.96 62.00 744.00 C 59.94 756.04 59.65 768.70 57.78 780.78 C 55.90 792.86 53.55 804.87 52.00 817.00 C 50.45 829.13 48.46 840.83 46.93 852.93 C 45.40 865.02 42.95 877.03 41.00 889.00 C 39.05 900.96 37.31 912.39 35.33 924.33 C 33.35 936.27 31.65 948.98 29.98 960.98 C 28.30 972.97 26.96 985.45 25.31 997.31 C 23.65 1009.17 21.71 1022.45 20.00 1034.00 C 18.29 1045.55 16.33 1060.17 24.75 1068.25 C 33.17 1076.33 38.88 1080.44 47.75 1087.25 C 56.63 1094.05 62.44 1097.43 72.31 1103.70 C 82.17 1109.96 95.10 1108.90 107.00 1107.00 C 118.90 1105.10 132.59 1105.29 145.00 1104.00 C 157.41 1102.71 171.18 1101.37 183.93 1100.93 C 196.67 1100.48 208.22 1097.52 221.00 1097.00 C 233.78 1096.48 247.25 1094.59 259.99 1093.99 C 272.74 1093.39 284.24 1090.26 297.00 1090.00
C 301.07 1035.35 301.27 979.73 305.00 925.00
M 565.00 535.00 
C 574.00 690.24 572.60 848.10 579.00 1004.00
C 562.24 1004.99 544.57 1006.64 528.00 1008.00 C 511.43 1009.36 493.89 1011.08 477.78 1012.78 C 461.67 1014.48 442.54 1015.15 427.33 1017.33 C 412.12 1019.51 406.15 1003.78 395.75 995.25 C 385.36 986.72 377.99 976.62 368.25 967.75 C 358.51 958.88 350.22 949.25 340.75 940.25 C 331.29 931.24 322.64 921.79 313.25 912.75 C 303.86 903.72 295.21 894.22 285.75 885.25 C 276.29 876.28 267.35 865.26 257.00 858.00
C 255.47 872.79 253.66 888.03 253.00 903.00 C 252.34 917.97 251.31 934.46 250.01 949.01 C 248.71 963.56 250.97 982.66 248.00 996.00 C 245.03 1009.34 253.12 1030.70 239.31 1036.31 C 225.49 1041.91 211.33 1040.51 196.78 1042.78 C 182.23 1045.05 166.48 1044.84 151.99 1046.99 C 137.50 1049.14 121.27 1048.78 107.00 1051.00 C 92.73 1053.22 75.71 1052.73 62.00 1055.00 C 48.29 1057.27 26.49 1062.56 29.00 1045.00 C 31.51 1027.44 33.05 1018.37 35.78 1002.78 C 38.51 987.19 39.55 974.83 42.00 960.00 C 44.45 945.17 45.85 931.55 48.00 917.00 C 50.15 902.45 52.18 888.46 54.00 874.00 C 55.82 859.54 58.86 845.79 60.33 831.33 C 61.80 816.87 65.21 803.28 66.93 788.93 C 68.64 774.57 70.65 760.14 72.98 745.98 C 75.31 731.81 76.74 717.11 78.99 702.99 C 81.24 688.87 83.14 674.06 85.00 660.00 C 86.86 645.94 89.94 631.49 91.78 617.78 C 93.62 604.07 93.91 586.63 110.00 587.00 C 126.09 587.37 138.94 581.80 154.01 582.01 C 169.07 582.22 185.02 577.56 199.02 578.02 C 213.03 578.49 232.59 572.63 244.23 577.77 C 255.87 582.91 259.71 594.53 269.25 601.75 C 278.79 608.98 284.20 619.30 292.75 627.25 C 301.31 635.20 308.12 644.48 316.25 652.75 C 324.37 661.03 331.33 670.34 339.25 678.75 C 347.17 687.16 354.65 696.18 363.00 704.00
C 363.93 687.71 364.40 669.16 365.00 653.00 C 365.60 636.84 366.06 617.25 367.00 602.00 C 367.94 586.74 362.62 564.16 380.01 562.01 C 397.39 559.85 409.71 557.25 426.01 555.01 C 442.31 552.77 456.27 550.65 472.02 548.02 C 487.78 545.40 503.39 544.46 519.00 542.00 C 534.61 539.54 549.39 537.25 565.00 535.00 Z"/>
</g>
<g fill="&fill_color;" fill-opacity="1.00" stroke="None">
<path d="
M 565.00 535.00 
C 549.39 537.25 534.61 539.54 519.00 542.00 C 503.39 544.46 487.78 545.40 472.02 548.02 C 456.27 550.65 442.31 552.77 426.01 555.01 C 409.71 557.25 397.39 559.85 380.01 562.01 C 362.62 564.16 367.94 586.74 367.00 602.00 C 366.06 617.25 365.60 636.84 365.00 653.00 C 364.40 669.16 363.93 687.71 363.00 704.00
C 354.65 696.18 347.17 687.16 339.25 678.75 C 331.33 670.34 324.37 661.03 316.25 652.75 C 308.12 644.48 301.31 635.20 292.75 627.25 C 284.20 619.30 278.79 608.98 269.25 601.75 C 259.71 594.53 255.87 582.91 244.23 577.77 C 232.59 572.63 213.03 578.49 199.02 578.02 C 185.02 577.56 169.07 582.22 154.01 582.01 C 138.94 581.80 126.09 587.37 110.00 587.00 C 93.91 586.63 93.62 604.07 91.78 617.78 C 89.94 631.49 86.86 645.94 85.00 660.00 C 83.14 674.06 81.24 688.87 78.99 702.99 C 76.74 717.11 75.31 731.81 72.98 745.98 C 70.65 760.14 68.64 774.57 66.93 788.93 C 65.21 803.28 61.80 816.87 60.33 831.33 C 58.86 845.79 55.82 859.54 54.00 874.00 C 52.18 888.46 50.15 902.45 48.00 917.00 C 45.85 931.55 44.45 945.17 42.00 960.00 C 39.55 974.83 38.51 987.19 35.78 1002.78 C 33.05 1018.37 31.51 1027.44 29.00 1045.00 C 26.49 1062.56 48.29 1057.27 62.00 1055.00 C 75.71 1052.73 92.73 1053.22 107.00 1051.00 C 121.27 1048.78 137.50 1049.14 151.99 1046.99 C 166.48 1044.84 182.23 1045.05 196.78 1042.78 C 211.33 1040.51 225.49 1041.91 239.31 1036.31 C 253.12 1030.70 245.03 1009.34 248.00 996.00 C 250.97 982.66 248.71 963.56 250.01 949.01 C 251.31 934.46 252.34 917.97 253.00 903.00 C 253.66 888.03 255.47 872.79 257.00 858.00
C 267.35 865.26 276.29 876.28 285.75 885.25 C 295.21 894.22 303.86 903.72 313.25 912.75 C 322.64 921.79 331.29 931.24 340.75 940.25 C 350.22 949.25 358.51 958.88 368.25 967.75 C 377.99 976.62 385.36 986.72 395.75 995.25 C 406.15 1003.78 412.12 1019.51 427.33 1017.33 C 442.54 1015.15 461.67 1014.48 477.78 1012.78 C 493.89 1011.08 511.43 1009.36 528.00 1008.00 C 544.57 1006.64 562.24 1004.99 579.00 1004.00
C 572.60 848.10 574.00 690.24 565.00 535.00 Z"/>
</g>
<g fill="&stroke_color;" fill-opacity="1.00" stroke="None">
<path d="
M 782.00 1065.00 
C 788.12 1047.64 789.83 1030.95 796.69 1013.69 C 803.55 996.44 808.84 979.18 806.99 959.01 C 805.14 938.84 806.16 917.40 804.00 897.00 C 801.84 876.60 804.03 854.68 801.99 834.01 C 799.95 813.33 799.61 793.36 799.00 772.00 C 798.39 750.64 795.50 732.36 796.00 710.00 C 796.50 687.64 791.48 672.75 792.33 648.67 C 793.18 624.59 770.72 626.16 750.00 628.00 C 729.28 629.84 707.12 627.90 686.00 630.00 C 664.88 632.10 648.13 633.11 626.00 635.00 C 603.87 636.89 607.45 662.20 608.00 682.00 C 608.55 701.81 609.41 725.20 609.00 746.00 C 608.59 766.80 609.01 789.25 610.00 810.00 C 610.99 830.75 609.65 853.32 611.00 874.00 C 612.35 894.68 610.95 917.49 612.01 937.99 C 613.07 958.49 613.11 979.33 616.07 998.93 C 619.04 1018.52 623.00 1035.39 625.00 1055.00
C 638.20 1056.42 652.73 1055.04 665.98 1056.02 C 679.22 1057.00 693.24 1056.83 706.33 1057.67 C 719.42 1058.51 734.23 1058.51 747.00 1059.00 C 759.77 1059.49 774.87 1055.88 782.00 1065.00
M 779.00 637.00 
C 786.34 753.99 790.80 871.71 797.00 989.00
C 739.66 989.00 682.33 989.00 625.00 989.00
C 623.51 874.88 619.73 761.32 619.00 647.00
C 672.05 642.59 725.43 639.40 779.00 637.00 Z"/>
</g>
<g fill="&fill_color;" fill-opacity="1.00" stroke="None">
<path d="
M 779.00 637.00 
C 725.43 639.40 672.05 642.59 619.00 647.00
C 619.73 761.32 623.51 874.88 625.00 989.00
C 682.33 989.00 739.66 989.00 797.00 989.00
C 790.80 871.71 786.34 753.99 779.00 637.00 Z"/>
</g>
</svg>